<svg width="40" height="40" viewBox="0 0 40 40" fill="none" xmlns="http://www.w3.org/2000/svg">
<path fill-rule="evenodd" clip-rule="evenodd" d="M31.531 32.5757C33.0717 32.5757 34.0338 30.9069 33.2619 29.5736L21.7308 9.65625C20.9604 8.32568 19.0394 8.32568 18.2691 9.65625L6.73796 29.5736C5.96603 30.9069 6.92815 32.5757 8.46881 32.5757H31.531ZM18.6361 28.4849V25.7576H21.3634V28.4849H18.6361ZM18.6361 23.0302V17.5756H21.3634V23.0302H18.6361Z" fill="#F50F0F"/>
<mask id="mask0" mask-type="alpha" maskUnits="userSpaceOnUse" x="6" y="8" width="28" height="25">
<path fill-rule="evenodd" clip-rule="evenodd" d="M31.531 32.5757C33.0717 32.5757 34.0338 30.9069 33.2619 29.5736L21.7308 9.65625C20.9604 8.32568 19.0394 8.32568 18.2691 9.65625L6.73796 29.5736C5.96603 30.9069 6.92815 32.5757 8.46881 32.5757H31.531ZM18.6361 28.4849V25.7576H21.3634V28.4849H18.6361ZM18.6361 23.0302V17.5756H21.3634V23.0302H18.6361Z" fill="white"/>
</mask>
<g mask="url(#mask0)">
<rect width="40" height="40" fill="#F50F0F"/>
</g>
</svg>
